M48
; DRILL file KiCad 10.0.4 date 2026-06-28T13:20:33
; FORMAT={-:-/ absolute / metric / decimal}
; #@! TF.CreationDate,2026-06-28T13:20:33+05:30
; #@! TF.GenerationSoftware,Kicad,Pcbnew,10.0.4
; #@! TF.FileFunction,Plated,1,2,PTH
FMAT,2
METRIC
; #@! TA.AperFunction,Plated,PTH,ComponentDrill
T1C1.000
%
G90
G05
T1
X130.295Y-82.805
X130.295Y-85.345
X130.295Y-87.885
X130.295Y-90.425
X130.295Y-92.965
X130.295Y-95.505
X130.295Y-98.045
X130.295Y-100.585
X130.295Y-103.125
X130.295Y-105.665
X130.295Y-108.205
X130.295Y-110.745
X130.295Y-113.285
X130.295Y-115.825
X130.295Y-118.365
X130.295Y-120.905
X134.885Y-82.795
X134.885Y-85.335
X134.885Y-89.935
X134.885Y-92.475
X134.885Y-95.015
X134.885Y-97.555
X139.475Y-82.795
X139.475Y-85.335
X139.475Y-89.935
X139.475Y-92.475
X139.475Y-95.015
X144.065Y-82.795
X144.065Y-85.335
X148.655Y-82.795
X148.655Y-85.335
M30
